<?xml version="1.0" standalone="no"?>
<!DOCTYPE svg PUBLIC "-//W3C//DTD SVG 20010904//EN"
 "http://www.w3.org/TR/2001/REC-SVG-20010904/DTD/svg10.dtd">
<svg version="1.0" xmlns="http://www.w3.org/2000/svg"
 width="260.000000pt" height="260.000000pt" viewBox="0 0 260.000000 260.000000"
 preserveAspectRatio="xMidYMid meet">
<metadata>
Created by potrace 1.11, written by Peter Selinger 2001-2013
</metadata>
<g transform="translate(0.000000,260.000000) scale(0.100000,-0.100000)"
fill="#000000" stroke="none">
<path d="M1169 2236 c-2 -2 -31 -6 -64 -9 -452 -44 -861 -292 -1018 -617 -57
-117 -83 -281 -65 -400 13 -82 15 -91 32 -140 61 -173 190 -333 357 -445 41
-28 76 -52 79 -55 24 -25 292 -137 350 -146 19 -3 38 -8 41 -10 13 -8 151 -34
217 -41 81 -9 315 -10 397 -1 73 8 254 44 292 59 15 6 35 12 43 14 27 6 174
67 212 87 l36 21 34 -24 c18 -12 58 -45 88 -72 93 -84 147 -93 171 -29 14 37
13 159 -4 266 l-13 89 39 36 c140 129 224 408 181 599 -7 28 -11 52 -9 52 8 0
-44 128 -71 176 -98 178 -258 323 -472 429 -213 106 -424 155 -688 161 -89 2
-163 2 -165 0z"/>
</g>
</svg>
